<svg aria-hidden="true" style="position: absolute; width: 0; height: 0; overflow: hidden;" version="1.1" xmlns="http://www.w3.org/2000/svg" xmlns:xlink="http://www.w3.org/1999/xlink">
<defs>
<symbol id="icon-close" viewBox="0 0 32 32">
<path stroke-linejoin="miter" stroke-linecap="butt" stroke-miterlimit="4" stroke-width="2.1333" d="M8.533 8.533l14.933 14.933M8.533 23.467l14.933-14.933"></path>
</symbol>
<symbol id="icon-arrow-next-page" viewBox="0 0 32 32">
<path stroke-linejoin="round" stroke-linecap="round" stroke-miterlimit="4" stroke-width="2.666" d="M6.666 16h18.668M16 25.334l9.334-9.334-9.334-9.334"></path>
</symbol>
<symbol id="icon-arrow-back-page" viewBox="0 0 32 32">
<path stroke-linejoin="round" stroke-linecap="round" stroke-miterlimit="4" stroke-width="2.666" d="M25.334 16h-18.668M16 25.334l-9.334-9.334 9.334-9.334"></path>
</symbol>
<symbol id="icon-filmoteka-icon-desk" viewBox="0 0 32 32">
<path fill="none" stroke="#fff" style="stroke: var(--color1, #fff)" stroke-linejoin="round" stroke-linecap="round" stroke-miterlimit="4" stroke-width="2.1695" d="M26.427 2.667h-20.853c-1.605 0-2.907 1.301-2.907 2.907v20.853c0 1.605 1.302 2.907 2.907 2.907h20.853c1.605 0 2.907-1.302 2.907-2.907v-20.853c0-1.605-1.302-2.907-2.907-2.907zM9.333 2.667v26.666M22.667 2.667v26.666M2.667 16h26.666M2.667 9.333h6.666M2.667 22.667h6.666M22.667 22.667h6.666M22.667 9.333h6.666"></path>
</symbol>
<symbol id="icon-filmoteka-icon-mob" viewBox="0 0 32 32">
<path fill="none" stroke="#fff" style="stroke: var(--color1, #fff)" stroke-linejoin="round" stroke-linecap="round" stroke-miterlimit="4" stroke-width="2" d="M26.427 2.667h-20.854c-1.605 0.001-2.905 1.301-2.906 2.906v20.854c0.001 1.605 1.301 2.905 2.906 2.906h20.854c1.605-0.001 2.905-1.301 2.906-2.906v-20.854c-0.001-1.605-1.301-2.905-2.906-2.906h-0zM9.333 2.667v26.666M22.667 2.667v26.666M2.667 16h26.666M2.667 9.333h6.666M2.667 22.667h6.666M22.667 22.667h6.666M22.667 9.333h6.666"></path>
</symbol>
<symbol id="icon-filmoteka-icon-tab" viewBox="0 0 32 32">
<path fill="none" stroke="#fff" style="stroke: var(--color1, #fff)" stroke-linejoin="round" stroke-linecap="round" stroke-miterlimit="4" stroke-width="1.561" d="M26.173 2.992h-20.345c-1.566 0-2.836 1.269-2.836 2.836v0 20.345c0 1.566 1.27 2.835 2.836 2.835v0h20.345c1.566 0 2.835-1.27 2.835-2.835v-20.345c0-1.566-1.27-2.836-2.835-2.836v0zM9.495 2.992v26.016M22.505 2.992v26.016M2.992 16h26.016M2.992 9.496h6.504M2.992 22.504h6.504M22.505 22.504h6.504M22.505 9.496h6.504"></path>
</symbol>
<symbol id="icon-red-heart" viewBox="0 0 32 32">
<path fill="#b92f2c" style="fill: var(--color2, #b92f2c)" d="M16 30.583l-2.24-2.24c-8.32-7.36-13.76-12.32-13.76-18.4 0-4.96 3.84-8.8 8.8-8.8 2.72 0 5.44 1.28 7.2 3.36 1.76-2.080 4.48-3.36 7.2-3.36 4.96 0 8.8 3.84 8.8 8.8 0 6.080-5.44 11.040-13.76 18.4l-2.24 2.24z"></path>
</symbol>
<symbol id="icon-search-svg-for-desk-tab" viewBox="0 0 32 32">
<path stroke-linejoin="round" stroke-linecap="round" stroke-miterlimit="4" stroke-width="2" d="M14.666 25.334c5.891 0 10.667-4.776 10.667-10.667s-4.776-10.667-10.667-10.667v0c-5.891 0-10.667 4.776-10.667 10.667s4.776 10.667 10.667 10.667v0zM28 28l-5.8-5.8"></path>
</symbol>
<symbol id="icon-search-svg-for-mob" viewBox="0 0 32 32">
<path stroke-linejoin="round" stroke-linecap="round" stroke-miterlimit="4" stroke-width="2.2857" d="M14.667 25.333c0.046 0.001 0.101 0.001 0.156 0.001 5.891 0 10.667-4.776 10.667-10.667s-4.776-10.667-10.667-10.667c-0.055 0-0.11 0-0.164 0.001l0.008-0c-5.824 0.088-10.511 4.83-10.511 10.666s4.687 10.578 10.503 10.666l0.008 0zM28 28l-5.801-5.799"></path>
</symbol>
</defs>
</svg>
